<svg width="200" height="200" viewBox="0 0 200 200" fill="none" xmlns="http://www.w3.org/2000/svg">
  <rect width="200" height="200" rx="12" fill="#1e293b"/>
  <rect x="1" y="1" width="198" height="198" rx="11" stroke="#334155" stroke-width="2"/>
  
  <!-- Coffee cup icon -->
  <g transform="translate(60, 50)">
    <path d="M40 20C40 15.5817 36.4183 12 32 12H8C3.58172 12 0 15.5817 0 20V40C0 44.4183 3.58172 48 8 48H32C36.4183 48 40 44.4183 40 40V20Z" fill="#8b5cf6"/>
    <path d="M32 12H8C3.58172 12 0 15.5817 0 20V40C0 44.4183 3.58172 48 8 48H32C36.4183 48 40 44.4183 40 40V20Z" stroke="#7c3aed" stroke-width="2"/>
    <path d="M44 28H48V32H44V28Z" fill="#7c3aed"/>
    <path d="M44 36H48V40H44V36Z" fill="#7c3aed"/>
    <path d="M44 44H48V48H44V44Z" fill="#7c3aed"/>
    <circle cx="20" cy="26" r="3" fill="#fbbf24"/>
  </g>
  
  <!-- Product name placeholder -->
  <rect x="20" y="120" width="160" height="12" rx="6" fill="#334155"/>
  <rect x="20" y="140" width="120" height="10" rx="5" fill="#475569"/>
  
  <!-- Price placeholder -->
  <rect x="20" y="160" width="80" height="10" rx="5" fill="#475569"/>
  
  <!-- Stock badge -->
  <rect x="140" y="160" width="40" height="20" rx="10" fill="#3b82f6"/>
  <text x="160" y="172" text-anchor="middle" fill="white" font-family="Arial, sans-serif" font-size="10" font-weight="600">Stock</text>
</svg>



