<svg width="32" height="32" viewBox="0 0 32 32" fill="none" xmlns="http://www.w3.org/2000/svg">
  <!-- Coffee cup base -->
  <path d="M8 12C8 9.79086 9.79086 8 12 8H20C22.2091 8 24 9.79086 24 12V20C24 22.2091 22.2091 24 20 24H12C9.79086 24 8 22.2091 8 20V12Z" fill="currentColor" opacity="0.8"/>
  
  <!-- Coffee cup handle -->
  <path d="M24 14C25.1046 14 26 14.8954 26 16C26 17.1046 25.1046 18 24 18V14Z" fill="currentColor" opacity="0.6"/>
  
  <!-- Coffee steam lines -->
  <path d="M14 6L15 4" stroke="currentColor" stroke-width="1.5" stroke-linecap="round" opacity="0.7"/>
  <path d="M18 6L19 4" stroke="currentColor" stroke-width="1.5" stroke-linecap="round" opacity="0.7"/>
  
  <!-- Coffee bean -->
  <ellipse cx="16" cy="16" rx="3" ry="2" fill="currentColor" opacity="0.4"/>
  <path d="M16 14C16.5523 14 17 14.4477 17 15C17 15.5523 16.5523 16 16 16C15.4477 16 15 15.5523 15 15C15 14.4477 15.4477 14 16 14Z" fill="currentColor" opacity="0.8"/>
</svg>



